<?xml version="1.0" standalone="no"?>
<!DOCTYPE svg PUBLIC "-//W3C//DTD SVG 20010904//EN"
 "http://www.w3.org/TR/2001/REC-SVG-20010904/DTD/svg10.dtd">
<svg version="1.0" xmlns="http://www.w3.org/2000/svg"
 width="32.000000pt" height="32.000000pt" viewBox="0 0 32.000000 32.000000"
 preserveAspectRatio="xMidYMid meet">

<g transform="translate(0.000000,32.000000) scale(0.100000,-0.100000)"
fill="#000000" stroke="none">
<path d="M0 160 l0 -160 160 0 160 0 0 160 0 160 -160 0 -160 0 0 -160z m182
73 c24 -27 46 -75 53 -116 6 -30 4 -37 -8 -37 -9 0 -19 5 -22 10 -10 16 -25
12 -19 -5 5 -11 -1 -15 -20 -15 -16 0 -26 6 -26 15 0 19 -17 19 -27 0 -5 -8
-14 -11 -20 -7 -16 10 0 71 34 130 28 47 33 50 55 25z"/>
</g>
</svg>
