<?xml version="1.0" encoding="utf-8"?>
<!-- Generator: Adobe Illustrator 25.0.1, SVG Export Plug-In . SVG Version: 6.00 Build 0)  -->
<svg version="1.1" id="Layer_1" xmlns="http://www.w3.org/2000/svg" xmlns:xlink="http://www.w3.org/1999/xlink" x="0px" y="0px"
	 viewBox="0 0 1257.08 586.94" style="enable-background:new 0 0 1257.08 586.94;" xml:space="preserve">
<style type="text/css">
	.st0{fill:#191714;}
	.st1{fill:#DD3B00;}
</style>
<g>
	<g>
		<path class="st0" d="M208.18,227.9v54.24l-62.66-22.49v162.7H78.44v-162.7l-62.28,22.49V227.9H208.18z"/>
		<path class="st0" d="M447.93,422.35h-60.82c-14.47,0-28.31-5.91-38.31-16.38l-44.21-46.29v62.66h-67.9V227.9h110.47
			c23.57,0,43.98,5.82,61.26,17.49c17.28,11.64,25.91,27.25,25.91,46.82c0,15-4.82,27.72-14.47,38.16s-22.63,17.4-38.98,20.88
			L447.93,422.35z M304.59,323.93h19.68c12.05,0,21.76-2.66,29.12-8.04c7.37-5.35,11.05-11.78,11.05-19.27
			c0-8.04-3.48-14.85-10.44-20.5c-6.96-5.61-16.87-8.45-29.74-8.45h-19.68v56.26H304.59z"/>
		<path class="st0" d="M686.24,227.9c21.43,0,38.51,4.36,51.23,13.04c12.72,8.71,19.09,20.15,19.09,34.36
			c0,9.12-1.75,17.43-5.23,24.91c-3.22,5.91-10.85,12.05-22.9,18.48c16.08,2.4,28.98,7.11,38.77,14.06
			c9.77,6.96,14.68,18.89,14.68,35.76c0,17.14-9.04,30.41-27.11,39.77c-18.07,9.39-37.43,14.06-58.04,14.06H583.46V227.9H686.24z
			 M650.89,304.25c14.74,0,25.7-0.99,32.95-3.01c7.22-2.02,10.85-7.43,10.85-16.26c0-8.3-2.89-13.19-8.63-14.65
			c-5.76-1.46-11.2-2.49-16.26-3.01c-5.09-0.53-11.37-0.79-18.89-0.79v37.72L650.89,304.25L650.89,304.25z M650.89,383.79h11.26
			c16.87,0,29.59-1.26,38.16-3.83c8.57-2.54,12.87-8.51,12.87-17.87c0-8.3-4.47-13.71-13.45-16.26c-8.98-2.54-21.64-3.83-37.96-3.83
			h-10.88L650.89,383.79L650.89,383.79z"/>
		<path class="st0" d="M928.1,422.44l-41.38-33.04l-24.09,33.04h-71.11l136.21-198.26l136.21,198.26h-45.97
			c-17.25,0-33.45-8.42-43.36-22.54l-7.08-10.09L928.1,422.44z M960.64,381.48l-32.55-47.4l-34.56,47.4H960.64z"/>
		<path class="st0" d="M1154.69,227.9v151.85h80.35v42.58h-148.63V227.87h68.28V227.9z"/>
		<g>
			<path class="st0" d="M570.71,140.65c-7.84-10.97-19.68-25.38-22.43-28.71c-0.06-0.06-0.12-0.12-0.18-0.15
				c0.03,0,0.03,0.03,0.06,0.03c-0.32-0.38-0.5-0.58-0.5-0.58l1.26,0.94c5.76,2.51,12.02,5.88,16.46,8.42
				c-10.29-32.93-28.33-65.15-53.8-94.07l-5.82-6.61c-1.75-2.02-4.97-2.02-6.73,0l-5.82,6.61c-9.74,11.05-18.39,22.6-25.94,34.48
				c7.02-3.39,14.09-6.37,20.18-8.1c0,0-23.25,21.29-33.16,30.91c-15.35,30.56-23.77,62.66-24.85,94.07l20.85,6.9h0.23l6.4-15.97
				c1.93-4.09,9.77-7.02,18.8-7.02h9.88l-6.05,27.63c1.52-1.26,2.75-2.6,3.6-3.63c0.88-1.05,2.19-1.67,3.6-1.67h15.59h15.59
				c1.4,0,2.72,0.58,3.6,1.67c0.85,1.02,2.11,2.37,3.6,3.63l-5.73-26.17c-4.44-0.99-10.41-1.46-10.41-1.46h10.09h2.81h7.08
				c9.04,0,16.87,2.92,18.8,7.02l6.4,15.97h0.23l20.85-6.9C574.95,165.56,573.4,153.07,570.71,140.65z M504.77,124.59
				c-0.44,8.74-1.08,17.52-2.34,26.26c-1.26-8.74-1.9-17.52-2.34-26.26c-0.47-8.74-0.61-17.52-0.67-26.26
				c0.06-8.74,0.18-17.52,0.67-26.26c0.44-8.74,1.08-17.52,2.34-26.26c1.26,8.74,1.9,17.52,2.34,26.26
				c0.47,8.74,0.61,17.52,0.67,26.26C505.39,107.08,505.27,115.82,504.77,124.59z"/>
		</g>
		<path class="st0" d="M547.52,206.5h-9.42h-7.57c-4.5,0-8.45-4.12-10.26-6.4c-0.76-0.94-1.87-1.46-3.07-1.46h-13.36h-13.36
			c-1.2,0-2.31,0.53-3.07,1.46c-1.84,2.28-5.79,6.4-10.26,6.4h-7.57h-9.42c-0.99,0-1.73,0.94-1.43,1.9
			c0.79,2.72,2.69,7.75,6.52,11.17c2.6,2.34,4.33,5.5,4.33,9.01V277l0.15-0.09v105.18c0,22.22,18.01,40.24,40.24,40.24h28.04V276.91
			l0.09,0.06v-48.42c0-3.51,1.73-6.67,4.33-9.01c3.8-3.42,5.7-8.45,6.52-11.17C549.22,207.43,548.52,206.5,547.52,206.5z"/>
	</g>
	<g>
		<path class="st0" d="M26.48,558.15H15.92v-51.23h10.56v21.96h11.99v-21.96H49.2v51.23H38.46v-21.96H26.48V558.15z"/>
		<path class="st0" d="M121.25,519.23c0-8.19,5.67-12.9,16.02-12.9s16.02,4.68,16.02,12.9v26.64c0,8.19-5.67,12.9-16.02,12.9
			s-16.02-4.68-16.02-12.9V519.23z M131.8,546.37c0,3.66,2.11,5.06,5.47,5.06s5.47-1.4,5.47-5.06V518.7c0-3.66-2.11-5.06-5.47-5.06
			s-5.47,1.4-5.47,5.06V546.37z"/>
		<path class="st0" d="M235.4,506.92v39.53c0,3.66,2.11,4.97,5.47,4.97s5.47-1.32,5.47-4.97v-39.53h9.97v39.01
			c0,8.19-5.38,12.9-15.73,12.9s-15.73-4.68-15.73-12.9v-39.01L235.4,506.92L235.4,506.92z"/>
		<path class="st0" d="M342.95,506.34c10.26,0,15.53,4.68,15.53,12.9v1.61h-9.97v-2.13c0-3.66-1.93-5.06-5.26-5.06
			c-3.36,0-5.26,1.4-5.26,5.06c0,10.53,20.62,12.52,20.62,27.16c0,8.19-5.38,12.9-15.73,12.9s-15.73-4.68-15.73-12.9v-3.16h9.97
			v3.66c0,3.66,2.11,4.97,5.47,4.97c3.36,0,5.47-1.32,5.47-4.97c0-10.53-20.62-12.52-20.62-27.16
			C327.4,511.01,332.69,506.34,342.95,506.34z"/>
		<path class="st0" d="M440.41,528.53h14.47v7.31h-14.47v15h18.22v7.31h-28.77v-51.23h28.77v7.31h-18.22V528.53z"/>
		<path class="st0" d="M624.66,506.34c10.26,0,15.53,4.68,15.53,12.9v1.61h-9.97v-2.13c0-3.66-1.93-5.06-5.26-5.06
			c-3.36,0-5.26,1.4-5.26,5.06c0,10.53,20.61,12.52,20.61,27.16c0,8.19-5.38,12.9-15.73,12.9s-15.73-4.68-15.73-12.9v-3.16h9.97
			v3.66c0,3.66,2.11,4.97,5.47,4.97s5.47-1.32,5.47-4.97c0-10.53-20.61-12.52-20.61-27.16C609.14,511.01,614.4,506.34,624.66,506.34
			z"/>
		<path class="st0" d="M708.5,506.92h32.63v7.31h-11.02v43.92h-10.56v-43.92h-11.02v-7.31L708.5,506.92L708.5,506.92z"/>
		<path class="st0" d="M821.02,506.92v39.53c0,3.66,2.11,4.97,5.47,4.97s5.47-1.32,5.47-4.97v-39.53h9.97v39.01
			c0,8.19-5.38,12.9-15.73,12.9s-15.73-4.68-15.73-12.9v-39.01L821.02,506.92L821.02,506.92z"/>
		<path class="st0" d="M914.35,506.92h16.7c10.56,0,15.73,4.47,15.73,12.66v25.91c0,8.19-5.18,12.66-15.73,12.66h-16.7V506.92z
			 M924.91,514.23v36.61h5.94c3.36,0,5.38-1.32,5.38-4.97v-26.64c0-3.66-2.02-4.97-5.38-4.97h-5.94V514.23z"/>
		<path class="st0" d="M1018.72,506.92h10.56v51.23h-10.56L1018.72,506.92L1018.72,506.92z"/>
		<path class="st0" d="M1101.32,519.23c0-8.19,5.67-12.9,16.02-12.9s16.02,4.68,16.02,12.9v26.64c0,8.19-5.67,12.9-16.02,12.9
			s-16.02-4.68-16.02-12.9V519.23z M1111.88,546.37c0,3.66,2.11,5.06,5.47,5.06s5.47-1.4,5.47-5.06V518.7
			c0-3.66-2.11-5.06-5.47-5.06s-5.47,1.4-5.47,5.06V546.37z"/>
		<path class="st0" d="M1219.6,506.34c10.26,0,15.53,4.68,15.53,12.9v1.61h-9.97v-2.13c0-3.66-1.93-5.06-5.26-5.06
			c-3.36,0-5.26,1.4-5.26,5.06c0,10.53,20.61,12.52,20.61,27.16c0,8.19-5.38,12.9-15.73,12.9s-15.73-4.68-15.73-12.9v-3.16h9.97
			v3.66c0,3.66,2.11,4.97,5.47,4.97s5.47-1.32,5.47-4.97c0-10.53-20.61-12.52-20.61-27.16
			C1204.05,511.01,1209.34,506.34,1219.6,506.34z"/>
	</g>
	<ellipse class="st1" cx="534.2" cy="532.6" rx="11.81" ry="11.81"/>
</g>
</svg>
